<svg xmlns="http://www.w3.org/2000/svg" width="98" height="98"><path fill-rule="evenodd" d="M49 97.998C22.066 97.998.231 76.164.231 49.231.231 22.296 22.066.462 49 .462c26.934 0 48.769 21.834 48.769 48.769 0 26.933-21.835 48.767-48.769 48.767zm0-96.235c-26.174 0-47.468 21.294-47.468 47.468 0 26.174 21.294 47.467 47.468 47.467 26.174 0 47.468-21.293 47.468-47.467S75.174 1.763 49 1.763zm14.474 37.64a2.401 2.401 0 01-2.399-2.399 2.401 2.401 0 012.399-2.399 2.4 2.4 0 012.399 2.399 2.4 2.4 0 01-2.399 2.399zm0-3.261a.863.863 0 100 1.726.863.863 0 000-1.726zm7.029 17.776a.766.766 0 01-1.062-.03l-1.398-1.417-7.223 7.662 3.996 3.997c.3.299.3.787 0 1.086l-2.692 2.692a.766.766 0 01-1.086 0l-.316-.319-2.148 2.152a.77.77 0 01-1.087 0l-.315-.318-2.152 2.146a.755.755 0 01-1.083 0l-.319-.314-2.147 2.149a.77.77 0 01-1.084.003l-1.413-1.399-1.395 1.396a.764.764 0 01-1.083 0l-2.691-2.692-2.692-2.688-2.692-2.662v-.003h-.004l-2.691-2.692a.77.77 0 01-.003-1.083l1.319-1.338-7.179-7.081-1.308 1.323a.756.756 0 01-.544.224.767.767 0 01-.514-.194l-7.208-6.47a.771.771 0 01-.06-1.084.775.775 0 011.087-.061l2.407 2.16 13.671-13.412-9.338-8.832a.773.773 0 01-.03-1.087.772.772 0 011.087-.029L42.95 38.792a.764.764 0 01.018 1.095l-1.33 1.345 3.947 3.899 2.122-2.103a.737.737 0 01.622-.217l5.222.555 2.707-2.834-1.226-1.245a.756.756 0 01-.222-.551.775.775 0 01.24-.544l13.837-13.09a.768.768 0 011.053 1.117L56.674 38.766l13.349 13.521 4.011-3.602-8.105-8.037a.768.768 0 011.08-1.091l8.168 8.1 1.507-1.353a.77.77 0 011.028 1.148l-7.209 6.466zM47.036 71.772l.844-.84-1.616-1.596-.833.832 1.605 1.604zm-2.692-2.691l.825-.825-1.619-1.593-.81.814 1.604 1.604zm-2.695-2.688l.81-.81-1.612-1.585-.799.81 1.601 1.585zm-2.695-2.672l.794-.81-1.612-1.589-.787.794 1.605 1.605zm-7.247-10.894c.289-.296.585-.604.893-.918.25-.259.502-.522.746-.773a4.836 4.836 0 01-.878-.577l-1.518 1.522.757.746zm6.804-16.123L24.866 50.091l3.111 2.796 13.35-13.521-2.816-2.662zM33.56 49.472a3.362 3.362 0 002.02.678 3.362 3.362 0 002.68-5.382l-4.7 4.704zm5.791-5.792c.217.263.405.547.562.848l1.41-1.447-.694-.682-1.278 1.281zm3.066.48l-1.982 2.032c.025.199.041.397.041.599a4.9 4.9 0 01-5.481 4.856c-.397.405-.84.861-1.294 1.329a179.9 179.9 0 01-.899.926l18.122 17.874 1.611-1.608-1.739-1.736-1.762-1.765a.765.765 0 010-1.084.77.77 0 011.087 0l.941.942 3.419 3.418 1.604-1.609-2.557-2.555-.94-.945a.758.758 0 010-1.084c.299-.3.783-.3 1.083 0l4.36 4.36 1.605-1.609-3.498-3.496a.77.77 0 010-1.088c.3-.3.784-.3 1.083 0l.944.941v.004l3.101 3.097.315.318 1.604-1.608-14.192-14.192c-7.299 7.396-11.505 4.213-11.681 4.071a.766.766 0 01-.289-.559.75.75 0 01.225-.588l7.246-7.186-2.077-2.055zm14.763-2.369l-4.413 4.615a.768.768 0 11-1.109-1.061l.555-.577-3.686-.394-9.39 9.315c1.421.33 4.578.176 9.286-4.835a.763.763 0 01.547-.24.743.743 0 01.555.224l10.207 10.208 7.135-7.568-9.687-9.687z"/></svg>